<svg xmlns="http://www.w3.org/2000/svg" xml:space="preserve" style="enable-background:new 0 0 575 575" viewBox="0 0 575 575"><path d="M 0,0 H 575 V 575 H 0 Z" style="fill:#ab0003" /><path d="m 492.49398,51.769896 c -46.42913,-37.178752 -88.52993,9.293759 -88.52993,35.889674 46.38079,9.893676 87.88539,56.36742 69.34125,177.01647 -15.18385,98.70249 -73.39193,160.1308 -109.97324,161.37277 30.32308,-41.59632 50.7525,-88.48655 61.79891,-134.31327 33.31152,-137.03151 -19.97204,-181.20474 -62.11994,-183.23132 -51.2136,-2.6203 -102.56601,67.18205 -116.87602,149.54671 -11.31787,65.24842 -9.84657,131.92228 29.81738,180.79322 -35.15714,44.26372 -119.45418,57.97505 -104.68308,-48.82508 12.42473,-89.31205 56.78018,-187.87696 81.39785,-236.27936 l 0.73751,-1.28909 c 13.16099,-27.05576 23.6521,-46.19981 28.11429,-53.836364 l -9.93952,-0.136344 C 175.73275,100.13388 99.302801,122.31099 63.827119,170.89932 30.467261,216.40998 29.500452,264.35502 57.016076,292.65401 l 4.04944,4.09406 c 8.098883,8.05302 18.635858,12.24128 29.172834,12.24128 h 0.04586 c 9.525546,0 19.09694,-3.49662 26.3666,-10.76753 7.31676,-7.22378 10.90511,-16.93278 10.90511,-26.50047 0,-10.5407 -4.23289,-21.07642 -12.28467,-29.13069 -4.3717,-4.23164 -9.24914,-7.45186 -14.44758,-9.52306 l 0.0905,-0.28013 2.48519,-5.10301 c 6.4863,-11.27448 17.76076,-21.58091 32.39428,-28.8989 11.54718,-5.75003 25.03044,-9.75362 39.70982,-11.22738 l -2.25465,4.83032 c -20.33769,37.77867 -50.06334,109.60884 -59.49593,146.96856 -29.21993,117.10779 18.08304,185.62479 69.25202,195.23834 61.61298,11.50378 108.82424,-18.3582 133.80756,-56.91777 29.77275,18.91228 108.4561,29.77275 167.62976,-75.59949 C 552.4944,280.78208 554.98083,101.87786 492.494,51.769896 M 318.33084,398.53194 c -11.64137,-28.43532 -16.98114,-61.89062 -16.98114,-93.68623 0,-38.37364 7.6849,-74.03648 20.93762,-95.01871 8.65045,-13.80429 19.09694,-20.47527 30.73832,-19.69315 4.18701,0.23055 8.88099,1.65597 12.28466,9.70899 2.7145,6.48878 3.91185,15.13676 3.91185,25.12588 0,50.01624 -29.90785,135.3681 -50.89131,173.56322" style="fill:#11225b" /><path d="m 485.54535,60.466216 c -14.86282,-11.870675 -30.18551,-14.586414 -44.4013,-7.68241 -11.96612,5.750033 -20.98471,17.164573 -24.48011,26.916945 28.66713,9.66313 72.24045,39.341679 72.24045,130.633199 0,16.65763 -1.47251,35.20052 -4.73984,56.09226 -14.21705,93.08881 -66.02931,156.35651 -107.53392,168.54698 -12.24128,3.58836 -23.32736,2.57817 -32.39553,-2.39223 41.09062,-50.57029 60.78624,-104.9099 70.1271,-143.51779 7.26966,-30.00205 10.21222,-54.61849 10.21222,-74.77273 0,-35.98264 -9.15741,-57.83996 -18.86515,-70.86337 -14.77111,-19.6448 -33.40449,-23.41783 -43.2994,-23.92478 -43.5287,-2.11707 -91.75139,62.25503 -105.27927,140.43515 -3.91062,22.59357 -5.98306,43.4816 -5.98306,62.57731 0,49.04943 12.97755,87.15037 38.88183,115.45059 -19.18744,30.0913 -58.25395,50.66202 -89.22033,43.62168 -13.66671,-3.08388 -42.28797,-15.82841 -42.28797,-68.37817 0,-7.45434 0.55282,-15.59785 1.79355,-24.66106 11.27448,-80.57236 48.22269,-169.79392 74.31289,-223.67615 l 0.64453,-1.15026 c 11.31911,-23.69673 21.07396,-42.42554 27.5615,-53.83636 l -1.74894,0.0459 c -93.17805,3.12973 -158.19469,26.36537 -188.334332,67.50183 0,0 -25.169254,32.16375 -24.295408,64.83569 0.505716,18.95563 7.179175,35.70374 21.67139,47.43808 l 1.886516,1.47375 c 11.320339,8.83267 27.011148,8.65046 36.581314,-1.01143 10.49111,-10.54069 9.80071,-28.20849 -1.42542,-39.48173 -5.84547,-5.843 -13.29858,-8.88225 -20.6612,-8.97273 H 86.276913 C 92.903271,204.3497 135.92749,175.45575 187.96783,175.45575 l 6.85567,0.18098 -0.96557,1.88651 -10.81339,20.20134 c -19.28039,35.75208 -49.0519,106.56712 -58.48449,144.29992 -14.77109,59.12531 -10.4911,111.0293 12.0095,146.09594 12.47061,19.46386 29.72441,32.02616 48.40614,35.56989 41.22943,7.72703 71.32073,-5.38686 89.31453,-17.71615 15.00041,-10.30767 29.67854,-26.36785 39.98746,-43.39236 12.28466,7.95759 32.94338,16.47169 50.29016,16.24239 29.44924,-0.414 72.51809,-15.04628 110.15669,-82.13412 31.38286,-55.95466 50.25051,-127.64229 51.5371,-196.61914 1.387,-65.93512 -13.88982,-118.069651 -40.71628,-139.604695 M 353.71603,179.08993 c 65.7529,4.09406 -8.37529,209.27069 -36.99407,242.07898 -47.0278,-84.98497 -29.45172,-246.26353 36.99407,-242.07898" style="fill:#ffffff" /></svg>
